<?xml version="1.0" encoding="UTF-8"?>
<svg id="Background" xmlns="http://www.w3.org/2000/svg" viewBox="0 0 69.93 69.29">
  <defs>
    <style>
      .cls-1 {
        fill: #11fbfb;
      }
    </style>
  </defs>
  <path class="cls-1" d="M11.64,47.26c-.67.78-1.58,1.38-2.64,1.68-1.4.4-2.87.22-4.15-.49-1.27-.71-2.19-1.88-2.58-3.28-.82-2.89.87-5.91,3.77-6.73,1.4-.4,2.87-.22,4.15.49,1.27.71,2.19,1.88,2.58,3.28h0c.52,1.83.03,3.71-1.13,5.05ZM4.78,41.31c-.16.18-.3.39-.42.6-.47.84-.59,1.82-.33,2.76s.87,1.71,1.72,2.18c.85.47,1.82.59,2.76.33,1.92-.54,3.05-2.55,2.5-4.47h0c-.26-.93-.87-1.71-1.72-2.18-.85-.47-1.82-.59-2.76-.33-.69.2-1.3.58-1.76,1.11Z"/>
  <path class="cls-1" d="M22.36,29.96s-.03.03-.04.05l-10.76,10.89c-.35.36-.93.36-1.29,0-.36-.35-.38-.94,0-1.29l10.76-10.89c.35-.36.93-.36,1.29,0,.34.34.36.89.05,1.25Z"/>
  <path class="cls-1" d="M29.43,29.13c-.67.78-1.58,1.38-2.64,1.68-2.89.82-5.91-.87-6.73-3.77-.4-1.4-.22-2.87.49-4.15.71-1.27,1.88-2.19,3.28-2.58,1.4-.4,2.87-.22,4.15.49,1.27.71,2.19,1.88,2.58,3.28h0c.52,1.83.03,3.71-1.13,5.05ZM22.57,23.18c-.16.18-.3.39-.42.6-.47.84-.59,1.82-.33,2.76.54,1.92,2.55,3.05,4.47,2.5.93-.26,1.71-.87,2.18-1.72.47-.84.59-1.82.33-2.76h0c-.26-.93-.87-1.71-1.72-2.18-.84-.47-1.82-.59-2.76-.33-.69.2-1.3.58-1.76,1.11Z"/>
  <path class="cls-1" d="M39.4,40.36s-.06.06-.09.09c-.38.33-.96.29-1.29-.09l-9.61-11.01c-.33-.38-.29-.96.09-1.29.38-.33.96-.29,1.29.09l9.61,11.01c.3.35.3.86,0,1.2Z"/>
  <path class="cls-1" d="M45.98,47.31c-.67.78-1.58,1.38-2.64,1.68-2.89.82-5.91-.87-6.73-3.77-.82-2.89.87-5.91,3.77-6.73,1.4-.4,2.87-.22,4.15.49,1.27.71,2.19,1.88,2.58,3.28h0c.52,1.83.03,3.71-1.13,5.05ZM39.12,41.37c-.77.89-1.09,2.14-.75,3.36.54,1.92,2.55,3.05,4.47,2.5.93-.26,1.71-.87,2.18-1.72.47-.84.59-1.82.33-2.76h0c-.26-.93-.87-1.71-1.72-2.18-.85-.47-1.82-.59-2.76-.33-.71.2-1.31.6-1.76,1.12Z"/>
  <path class="cls-1" d="M58.36,35.01c-.06.08-.14.14-.23.19l-11.8,6.83c-.44.25-1,.1-1.25-.33-.25-.44-.1-1,.33-1.25l11.8-6.83c.44-.25,1-.1,1.25.33.2.35.15.77-.1,1.06Z"/>
  <path class="cls-1" d="M65.93,35.22c-.69.8-1.6,1.38-2.64,1.68-2.9.82-5.91-.87-6.73-3.77-.4-1.4-.22-2.87.49-4.15.71-1.27,1.88-2.19,3.28-2.58,2.89-.82,5.91.87,6.73,3.77h0c.4,1.4.22,2.88-.49,4.15-.18.33-.4.63-.64.91ZM59.07,29.27c-.16.18-.3.39-.42.6-.47.85-.59,1.82-.33,2.76.54,1.92,2.55,3.05,4.47,2.5.93-.26,1.71-.87,2.18-1.72s.59-1.82.33-2.76h0c-.26-.93-.87-1.71-1.72-2.18-.84-.47-1.82-.59-2.76-.33-.69.2-1.3.58-1.76,1.11ZM66.18,30.41h0s0,0,0,0Z"/>
</svg>