<?xml version="1.0" encoding="UTF-8"?>
<svg xmlns="http://www.w3.org/2000/svg" viewBox="0 0 437.29 393.95">
  <defs>
    <style>
      .cls-1 {
        fill: #11fbfb;
      }
    </style>
  </defs>
  <g id="Background">
    <g>
      <path class="cls-1" d="M23,157.98c-2.1,0-4.19-.7-5.9-2.06l-1.21-.96,19.71-10.2c-.07-.49-.19-.98-.36-1.46l-19.3,9.99c-.49.26-1.09.06-1.35-.43-.25-.49-.06-1.09.43-1.35l21.14-10.94.46.89c.56,1.08.89,2.22,1.01,3.37,0,0,0,0,0,0,.14.26.14.56.05.82.05,3.48-1.82,6.86-5.11,8.56l-5.22,2.7c-1.37.71-2.86,1.06-4.35,1.06ZM19.73,155.23c2.09,1.01,4.58,1.01,6.7-.08l5.22-2.7c2.17-1.12,3.56-3.17,3.93-5.42l-15.84,8.2Z"/>
      <path class="cls-1" d="M15.05,153.76l-9.41-18.17c-1.22-2.35-.29-5.25,2.06-6.47,2.35-1.22,5.25-.29,6.47,2.06l9.41,18.17-8.52,4.41ZM9.9,130.58c-.43,0-.87.1-1.28.31-1.37.71-1.91,2.4-1.2,3.77l8.49,16.4,4.97-2.57-8.49-16.4c-.5-.96-1.48-1.51-2.49-1.51Z"/>
      <path class="cls-1" d="M21.8,150.27l-9.41-18.17c-1.22-2.35-.29-5.25,2.06-6.47,1.14-.59,2.44-.7,3.66-.31,1.22.39,2.22,1.23,2.81,2.37l9.41,18.17-8.52,4.41ZM16.65,127.09c-.44,0-.88.11-1.28.31-1.37.71-1.91,2.4-1.2,3.77l8.49,16.4,4.97-2.57-8.49-16.4c-.34-.66-.92-1.15-1.64-1.38-.28-.09-.57-.13-.85-.13Z"/>
      <path class="cls-1" d="M28.54,146.77l-9.41-18.17c-1.22-2.35-.29-5.25,2.06-6.47,2.35-1.21,5.25-.29,6.47,2.06h0s9.41,18.17,9.41,18.17l-8.52,4.41ZM23.4,123.6c-.43,0-.87.1-1.28.31-1.37.71-1.91,2.4-1.2,3.77l8.49,16.4,4.97-2.57-8.49-16.4c-.5-.96-1.48-1.51-2.49-1.51Z"/>
      <path class="cls-1" d="M6.11,134.34s-.04,0-.06,0c-.55-.03-.97-.51-.94-1.06l1.38-23.23,19.65,12.4c.47.29.61.91.31,1.38-.29.47-.91.61-1.38.31l-16.78-10.59-1.18,19.85c-.03.53-.47.94-1,.94Z"/>
      <path class="cls-1" d="M7,119.38c-.36,0-.71-.2-.89-.54-.25-.49-.06-1.09.43-1.35l5.94-3.07c.49-.25,1.09-.06,1.35.43.25.49.06,1.09-.43,1.35l-5.94,3.07c-.15.08-.3.11-.46.11Z"/>
    </g>
    <g>
      <g>
        <path class="cls-1" d="M89.31,51.18c-.42,0-.82-.27-.95-.7-3.99-12.66,3.07-26.2,15.73-30.18,12.66-3.99,26.2,3.07,30.18,15.73.17.53-.13,1.09-.65,1.25-.53.17-1.09-.13-1.25-.65-3.65-11.6-16.07-18.07-27.67-14.42-11.6,3.66-18.07,16.07-14.42,27.68.17.53-.13,1.09-.65,1.25-.1.03-.2.05-.3.05Z"/>
        <path class="cls-1" d="M82.39,29.18c-.42,0-.82-.27-.95-.7-.17-.53.13-1.09.65-1.25l44-13.86c.52-.17,1.09.13,1.25.65.17.53-.13,1.09-.65,1.25l-44,13.86c-.1.03-.2.05-.3.05Z"/>
        <path class="cls-1" d="M82.55,30.05c-.93,0-1.79-.6-2.08-1.53-.18-.56-.12-1.15.15-1.67s.72-.9,1.28-1.07c.56-.17,1.15-.12,1.66.15.52.27.9.72,1.07,1.28.36,1.15-.28,2.38-1.43,2.74-.22.07-.44.1-.65.1ZM82.53,27.69s-.03,0-.04,0c-.08.03-.15.15-.12.23.03.1.13.15.23.12.08-.03.15-.15.12-.23-.02-.07-.11-.13-.19-.13Z"/>
        <path class="cls-1" d="M126.31,16.27c-.35,0-.69-.08-1.01-.25-.52-.27-.9-.72-1.07-1.28-.18-.56-.12-1.15.15-1.67s.72-.9,1.28-1.07c.56-.17,1.15-.12,1.66.15.52.27.9.72,1.07,1.28.18.56.12,1.15-.15,1.67-.27.52-.72.9-1.28,1.07-.22.07-.44.1-.66.1ZM126.3,13.9s-.03,0-.04,0c-.08.03-.15.15-.12.23.03.08.15.14.23.12.08-.03.15-.15.12-.23-.02-.07-.11-.13-.19-.13Z"/>
        <path class="cls-1" d="M102.8,24.3l-1.46-4.64,4.64-1.46,1.46,4.64-4.64,1.46ZM103.85,20.97l.26.82.82-.26-.26-.82-.82.26Z"/>
        <path class="cls-1" d="M87.73,53.22l-1.46-4.63,4.64-1.46,1.46,4.64-4.64,1.46ZM88.78,49.9l.26.82.82-.26-.26-.82-.82.26Z"/>
        <path class="cls-1" d="M131.73,39.37l-1.46-4.63,4.63-1.46,1.46,4.64-4.64,1.46ZM132.78,36.04l.26.82.82-.26-.26-.82-.82.26Z"/>
      </g>
      <path class="cls-1" d="M113.1,62.47c-.41,0-.8-.25-.94-.66-1.49-4.15-4.18-8.42-12.92-8.58l-2.84-.05,2.25-1.74c7.49-5.8,8.16-19.15,6.42-24.68l1.91-.6c1.79,5.68,1.32,18.25-5.3,25.22,9.27,1.08,11.49,7.29,12.37,9.75.19.52-.08,1.09-.6,1.28-.11.04-.23.06-.34.06Z"/>
      <path class="cls-1" d="M120.29,60.2c-.44,0-.84-.29-.96-.74-.69-2.51-2.43-8.88,4.55-15.08-9.43-1.92-17.01-11.95-18.8-17.63l1.91-.6c1.74,5.53,9.94,16.08,19.4,16.54l2.84.14-2.3,1.67c-7.07,5.14-6.83,10.18-5.67,14.43.15.53-.17,1.08-.7,1.23-.09.02-.18.04-.26.04Z"/>
      <path class="cls-1" d="M113.93,70.8l-1.73-8.06c-.51-2.35.95-4.86,3.25-5.58l.45-.14c2.3-.73,4.93.49,5.86,2.71l3.2,7.6-11.03,3.47ZM116.5,58.91l-.45.14c-1.34.42-2.19,1.88-1.89,3.26l1.27,5.92,6.84-2.16-2.35-5.58c-.55-1.3-2.08-2.01-3.42-1.58h0Z"/>
      <path class="cls-1" d="M113.19,50.21c-.42,0-.82-.27-.95-.7l-7.16-22.75c-.17-.53.13-1.09.65-1.25.52-.17,1.09.13,1.25.65l7.16,22.75c.17.53-.13,1.09-.65,1.25-.1.03-.2.05-.3.05Z"/>
      <path class="cls-1" d="M113.19,51.39c-.35,0-.69-.08-1.01-.25-.52-.27-.9-.72-1.07-1.28-.17-.56-.12-1.15.15-1.66.27-.52.72-.9,1.28-1.07,1.15-.36,2.38.28,2.74,1.43h0c.36,1.15-.28,2.38-1.43,2.74-.22.07-.44.1-.66.1ZM113.19,49.02s-.04,0-.05,0c-.08.03-.15.15-.12.23.03.1.14.15.23.12.1-.03.15-.13.12-.23h0c-.02-.08-.1-.13-.18-.13Z"/>
    </g>
    <g id="_149_Font_text_tool_designer" data-name="149, Font, text, tool, designer">
      <g>
        <path class="cls-1" d="M400.33,56.42l-35.71-12.45c-.45-.16-.98.1-1.14.55l-3.67,10.52c-.16.45.1.98.55,1.14l4.87,1.7c.45.16.98-.1,1.14-.55l.86-2.47,8.12,2.83-7.65,21.95-2.47-.86c-.45-.16-.98.1-1.14.55l-1.7,4.87c-.16.45.1.98.55,1.14l13.83,4.82c.45.16.98-.1,1.14-.55l1.7-4.87c.16-.45-.1-.98-.55-1.14l-2.47-.86,7.63-21.88,7.34,2.56-.86,2.47c-.16.45.1.98.55,1.14l4.8,1.68c.45.16.98-.1,1.14-.55l3.69-10.58c.16-.45-.1-.98-.55-1.14ZM395.86,66.73l-3.25-1.13.86-2.47c.16-.45-.1-.98-.55-1.14l-8.96-3.12c-.45-.16-.98.1-1.14.55l-8.22,23.57c-.16.45.1.98.55,1.14l2.47.86-1.13,3.25-12.21-4.26,1.13-3.25,2.47.86c.45.16.98-.1,1.14-.55l8.22-23.57c.16-.45-.12-.91-.57-1.07l-9.74-3.4c-.45-.16-.98.1-1.12.48l-.86,2.47-3.25-1.13,3.12-8.96,34.09,11.88-3.12,8.96.06.02Z"/>
        <path class="cls-1" d="M395.51,70.25c.47.16.71.67.55,1.14s-.67.71-1.14.55-.71-.67-.55-1.14.67-.71,1.14-.55Z"/>
        <path class="cls-1" d="M394.67,72.65c.47.16.71.67.55,1.14s-.67.71-1.14.55-.71-.67-.55-1.14.67-.71,1.14-.55Z"/>
        <path class="cls-1" d="M393.81,75.12c.47.16.71.67.55,1.14s-.67.71-1.14.55-.71-.67-.55-1.14.67-.71,1.14-.55Z"/>
        <path class="cls-1" d="M392.98,77.52c.47.16.71.67.55,1.14s-.67.71-1.14.55-.71-.67-.55-1.14.67-.71,1.14-.55Z"/>
        <path class="cls-1" d="M392.12,79.99c.47.16.71.67.55,1.14s-.67.71-1.14.55-.71-.67-.55-1.14.67-.71,1.14-.55Z"/>
        <path class="cls-1" d="M391.28,82.39c.47.16.71.67.55,1.14s-.67.71-1.14.55-.71-.67-.55-1.14.67-.71,1.14-.55Z"/>
        <path class="cls-1" d="M382.38,76.6c.47.16.71.67.55,1.14s-.67.71-1.14.55-.71-.67-.55-1.14.67-.71,1.14-.55Z"/>
        <path class="cls-1" d="M380.04,88.52c.47.16.71.67.55,1.14s-.67.71-1.14.55-.71-.67-.55-1.14.67-.71,1.14-.55Z"/>
        <path class="cls-1" d="M382.51,89.38c.47.16.71.67.55,1.14s-.67.71-1.14.55-.71-.67-.55-1.14.67-.71,1.14-.55Z"/>
        <path class="cls-1" d="M384.91,90.22c.47.16.71.67.55,1.14s-.67.71-1.14.55-.71-.67-.55-1.14.67-.71,1.14-.55Z"/>
        <path class="cls-1" d="M356.47,80.31c.47.16.71.67.55,1.14s-.67.71-1.14.55-.71-.67-.55-1.14.67-.71,1.14-.55Z"/>
        <path class="cls-1" d="M358.94,81.17c.47.16.71.67.55,1.14s-.67.71-1.14.55-.71-.67-.55-1.14.67-.71,1.14-.55Z"/>
        <path class="cls-1" d="M361.34,82.01c.47.16.71.67.55,1.14s-.67.71-1.14.55-.71-.67-.55-1.14.67-.71,1.14-.55Z"/>
        <path class="cls-1" d="M390.42,84.86c.47.16.71.67.55,1.14s-.67.71-1.14.55-.71-.67-.55-1.14.67-.71,1.14-.55Z"/>
        <path class="cls-1" d="M389.58,87.26c.47.16.71.67.55,1.14s-.67.71-1.14.55-.71-.67-.55-1.14.67-.71,1.14-.55Z"/>
        <path class="cls-1" d="M359.8,57.8c.47.16.71.67.55,1.14s-.67.71-1.14.55-.71-.67-.55-1.14.67-.71,1.14-.55Z"/>
        <path class="cls-1" d="M358.96,60.2c.47.16.71.67.55,1.14s-.67.71-1.14.55-.71-.67-.55-1.14.67-.71,1.14-.55Z"/>
        <path class="cls-1" d="M358.1,62.67c.47.16.71.67.55,1.14s-.67.71-1.14.55-.71-.67-.55-1.14.67-.71,1.14-.55Z"/>
        <path class="cls-1" d="M357.26,65.07c.47.16.71.67.55,1.14s-.67.71-1.14.55-.71-.67-.55-1.14.67-.71,1.14-.55Z"/>
        <path class="cls-1" d="M356.4,67.54c.47.16.71.67.55,1.14s-.67.71-1.14.55-.71-.67-.55-1.14.67-.71,1.14-.55Z"/>
        <path class="cls-1" d="M355.57,69.94c.47.16.71.67.55,1.14s-.67.71-1.14.55-.71-.67-.55-1.14.67-.71,1.14-.55Z"/>
        <path class="cls-1" d="M366.14,70.94c.47.16.71.67.55,1.14s-.67.71-1.14.55-.71-.67-.55-1.14.67-.71,1.14-.55Z"/>
        <path class="cls-1" d="M383.24,74.13c.47.16.71.67.55,1.14s-.67.71-1.14.55-.71-.67-.55-1.14.67-.71,1.14-.55Z"/>
        <path class="cls-1" d="M367,68.47c.47.16.71.67.55,1.14s-.67.71-1.14.55-.71-.67-.55-1.14.67-.71,1.14-.55Z"/>
        <path class="cls-1" d="M384.07,71.73c.47.16.71.67.55,1.14s-.67.71-1.14.55-.71-.67-.55-1.14.67-.71,1.14-.55Z"/>
        <path class="cls-1" d="M367.84,66.07c.47.16.71.67.55,1.14s-.67.71-1.14.55-.71-.67-.55-1.14.67-.71,1.14-.55Z"/>
        <path class="cls-1" d="M384.93,69.26c.47.16.71.67.55,1.14s-.67.71-1.14.55-.71-.67-.55-1.14.67-.71,1.14-.55Z"/>
        <path class="cls-1" d="M368.7,63.6c.47.16.71.67.55,1.14s-.67.71-1.14.55-.71-.67-.55-1.14.67-.71,1.14-.55Z"/>
        <path class="cls-1" d="M385.77,66.86c.47.16.71.67.55,1.14s-.67.71-1.14.55-.71-.67-.55-1.14.67-.71,1.14-.55Z"/>
        <path class="cls-1" d="M369.54,61.2c.47.16.71.67.55,1.14s-.67.71-1.14.55-.71-.67-.55-1.14.67-.71,1.14-.55Z"/>
        <path class="cls-1" d="M386.63,64.39c.47.16.71.67.55,1.14s-.67.71-1.14.55-.71-.67-.55-1.14.67-.71,1.14-.55Z"/>
        <path class="cls-1" d="M370.4,58.73c.47.16.71.67.55,1.14s-.67.71-1.14.55-.71-.67-.55-1.14.67-.71,1.14-.55Z"/>
        <path class="cls-1" d="M354.71,72.41c.47.16.71.67.55,1.14s-.67.71-1.14.55-.71-.67-.55-1.14.67-.71,1.14-.55Z"/>
        <path class="cls-1" d="M353.87,74.81c.47.16.71.67.55,1.14s-.67.71-1.14.55-.71-.67-.55-1.14.67-.71,1.14-.55Z"/>
      </g>
    </g>
    <g>
      <path class="cls-1" d="M20.81,207.91c-5.75,2.72-7.88,6.43-7.88,6.43-4.49,6.09-5.51,14.38-2.06,21.66,2.81,5.93,8.1,10.13,14.52,11.61,3.32.74,6.12,2.93,7.61,6.08l2.43,5.12.77,1.73c.15.35.56.5.91.33l14.5-6.94c.33-.16.48-.56.32-.89l-.78-1.67-2.43-5.12c-1.45-3.06-1.41-6.7.07-9.6,3.02-5.94,3.12-12.7.31-18.63-3.4-7.19-10.47-11.65-18.06-12.13,0,0-4.47-.69-10.23,2.03ZM46.64,247.88l.51,1.08-11.23,5.32-.55-1.17,11.23-5.32.04.09ZM37.54,257.69l-.55-1.17,11.23-5.32.55,1.17-11.23,5.32ZM25.15,208.77c8.54-2.17,17.75,1.94,21.62,10.11,2.51,5.3,2.38,11.3-.26,16.4-1.49,3-1.8,6.42-.95,9.62.08.32-.06.65-.36.79l-10.48,4.96c-.3.14-.64.04-.83-.22-1.94-2.69-4.78-4.62-8.09-5.45-5.67-1.28-10.3-5.02-12.77-10.23-3.84-8.1-1.35-17.69,5.81-22.94.06-.05,1.21-.94,3.09-1.81.89-.41,1.96-.85,3.22-1.22Z"/>
      <path class="cls-1" d="M19.8,255.09c-1.89.89-2.69,3.14-1.8,5.03s3.14,2.69,5.03,1.8,2.69-3.14,1.8-5.03-3.14-2.69-5.03-1.8ZM21.93,259.58c-.63.3-1.42.01-1.72-.61s-.01-1.42.61-1.72,1.42-.01,1.72.61.01,1.42-.61,1.72Z"/>
      <path class="cls-1" d="M55.97,229.71c-2.52,1.19-3.56,4.1-2.36,6.62s4.1,3.56,6.62,2.36,3.56-4.1,2.36-6.62-4.1-3.56-6.62-2.36ZM59.16,236.45c-1.26.6-2.71.08-3.31-1.18s-.08-2.71,1.18-3.31,2.71-.08,3.31,1.18c.55,1.17.08,2.71-1.18,3.31Z"/>
      <path class="cls-1" d="M11.06,244.05c.64-.31,1.42-.03,1.72.61s.03,1.42-.61,1.72-1.42.03-1.72-.61-.03-1.42.62-1.72Z"/>
      <path class="cls-1" d="M54.61,241.24c.64-.31,1.42-.03,1.72.61s.03,1.42-.61,1.72-1.42.03-1.72-.61-.03-1.42.61-1.72Z"/>
      <path class="cls-1" d="M51.79,215.08c.64-.31,1.42-.03,1.72.61s.03,1.42-.61,1.72-1.42.03-1.72-.62-.03-1.42.61-1.72Z"/>
      <path class="cls-1" d="M4.34,225.23c.6-.28,1.31-.03,1.59.57s.03,1.31-.57,1.59-1.31.03-1.59-.57-.03-1.31.57-1.59Z"/>
      <path class="cls-1" d="M39.9,249.09l-2.38-5.04c-.24-.5-.27-1.07-.08-1.6.19-.53.57-.95,1.07-1.19l1.32-.62c.77-.37,1.11-1.29.75-2.07h0c-.37-.78-1.3-1.11-2.08-.74l-4.06,1.92c-1.24.58-2.72.09-3.35-1.1h0s0,0,0,0h0l-.05-.11s0,0,0,0h0c-.52-1.25.03-2.71,1.27-3.3l4.06-1.92c.76-.36,1.1-1.26.76-2.03-.38-.75-1.3-1.06-2.06-.7l-5.93,2.81-.43-.9,5.93-2.81c1.25-.59,2.73-.08,3.37,1.13h0s.04.09.04.09h0c.54,1.26-.01,2.73-1.26,3.32l-4.06,1.92c-.76.36-1.1,1.26-.77,2.02.18.35.48.61.86.74.39.14.82.12,1.19-.06l4.06-1.92c1.27-.6,2.8-.06,3.41,1.21h0c.6,1.28.06,2.81-1.22,3.41l-1.32.62c-.54.26-.78.91-.52,1.45l2.38,5.04-.9.43Z"/>
    </g>
    <g>
      <path class="cls-1" d="M33.43,355.67h-4.14c-1.59,0-2.88-1.08-3.14-2.64l-.94-4.16c-.66-.22-1.34-.5-2.04-.83l-3.71,2.34c-1.29.78-3.04.56-4.1-.49l-2.96-2.97c-.99-1.23-1.14-2.75-.41-3.97l2.35-3.73c-.33-.7-.6-1.39-.82-2.04l-4.23-.95c-1.48-.25-2.57-1.54-2.57-3.13v-4.14c0-1.59,1.08-2.88,2.63-3.14l4.01-.8c.22-.65.49-1.33.82-2.02l-2.34-3.71c-.78-1.29-.56-3.05.49-4.1l2.97-2.96c1.23-.99,2.76-1.15,3.97-.41l3.73,2.35c.7-.33,1.39-.6,2.04-.82l.96-4.23c.25-1.48,1.54-2.57,3.13-2.57h4.14c1.59,0,2.89,1.08,3.14,2.64l.95,4.06c.34.13.68.25,1.02.38.38.13.75.27,1.13.41l3.75-2.36c1.29-.78,3.04-.56,4.1.49l2.96,2.97c.99,1.23,1.15,2.75.42,3.97l-2.35,3.73c.33.7.6,1.39.82,2.04l4.23.95c1.48.25,2.57,1.54,2.57,3.13v4.14c0,1.59-1.08,2.88-2.63,3.14l-4.16.94c-.22.66-.5,1.34-.82,2.04l2.34,3.71c.78,1.29.56,3.04-.49,4.09l-2.97,2.96c-1.23.99-2.75,1.14-3.97.41l-3.73-2.35c-.7.33-1.39.6-2.04.83l-.96,4.23c-.24,1.48-1.54,2.57-3.13,2.57ZM23.02,345.19l.63.32c1.04.52,2.06.93,2.97,1.19l.71.2,1.28,5.66c.08.47.41.62.69.62h4.14c.28,0,.61-.14.68-.55l1.29-5.73.71-.2c.9-.26,1.92-.67,2.97-1.19l.63-.32,4.89,3.08c.37.22.8-.01,1.05-.2l2.81-2.81c.24-.24.31-.73.13-1.02l-3.07-4.87.31-.63c.52-1.04.93-2.07,1.19-2.97l.2-.71,5.66-1.28c.47-.08.62-.41.62-.69v-4.14c0-.28-.14-.61-.55-.68l-5.73-1.29-.2-.71c-.26-.91-.66-1.91-1.19-2.97l-.31-.63,3.08-4.89c.22-.37-.01-.8-.2-1.05l-2.81-2.81c-.24-.24-.73-.3-1.02-.13l-4.83,3.04-.6-.26c-.53-.23-1.07-.42-1.6-.61-.58-.21-1.16-.42-1.75-.67l-.58-.25-1.26-5.39c-.08-.48-.41-.63-.69-.63h-4.14c-.28,0-.61.14-.68.55l-1.29,5.72-.71.2c-.9.26-1.93.67-2.97,1.19l-.63.31-4.89-3.08c-.37-.22-.8.01-1.05.2l-2.81,2.81c-.24.24-.3.73-.13,1.02l3.07,4.87-.31.63c-.52,1.04-.93,2.07-1.19,2.97l-.21.73-5.52,1.1c-.44.08-.59.4-.59.68v4.14c0,.28.14.61.55.68l5.73,1.29.2.71c.26.9.67,1.93,1.19,2.97l.32.63-3.08,4.89c-.22.37.01.8.2,1.05l2.81,2.81c.24.24.73.3,1.02.13l4.87-3.07Z"/>
      <path class="cls-1" d="M31.2,322.91c-4.46,0-8.12,3.66-8.12,8.12s3.66,8.12,8.12,8.12,8.12-3.66,8.12-8.12-3.66-8.12-8.12-8.12ZM31.29,336.67c-3.08,0-5.72-2.42-5.72-5.72,0-3.08,2.64-5.72,5.72-5.72s5.72,2.64,5.72,5.72-2.64,5.72-5.72,5.72Z"/>
    </g>
    <g>
      <path class="cls-1" d="M79.12,120.62c-1.13,0-2.27-.32-3.28-.98-1.33-.88-2.24-2.22-2.56-3.78-.32-1.56-.01-3.15.87-4.48,1.81-2.74,5.52-3.5,8.26-1.69,1.33.88,2.24,2.22,2.56,3.78.32,1.56.01,3.15-.87,4.48h0c-1.15,1.74-3.05,2.68-4.99,2.68ZM79.14,110.69c-.27,0-.54.03-.8.08-1.04.21-1.93.82-2.51,1.7s-.79,1.94-.58,2.98c.21,1.04.82,1.93,1.7,2.51,1.82,1.2,4.29.7,5.49-1.12h0c.58-.88.79-1.94.58-2.98-.21-1.04-.82-1.93-1.7-2.51-.66-.43-1.41-.66-2.18-.66Z"/>
      <path class="cls-1" d="M101.1,117.13s-.04,0-.07,0l-16.7-1.12c-.55-.04-.97-.51-.93-1.06.04-.55.51-.98,1.06-.93l16.7,1.12c.55.04.97.51.93,1.06-.04.53-.47.93-1,.93Z"/>
      <path class="cls-1" d="M106.84,122.38c-1.13,0-2.27-.32-3.28-.98-2.74-1.81-3.5-5.52-1.69-8.26.88-1.33,2.22-2.24,3.78-2.56,1.56-.32,3.15-.01,4.48.87,1.33.88,2.24,2.22,2.56,3.78.32,1.56.01,3.15-.87,4.48h0c-1.15,1.74-3.05,2.68-4.99,2.68ZM106.86,112.45c-.27,0-.54.03-.8.08-1.04.21-1.93.82-2.51,1.7-1.2,1.82-.7,4.29,1.12,5.49.88.58,1.94.79,2.98.58,1.04-.21,1.93-.82,2.51-1.7h0c.58-.88.79-1.94.58-2.98-.21-1.04-.82-1.93-1.7-2.51-.66-.43-1.41-.66-2.18-.66Z"/>
      <path class="cls-1" d="M104.67,138.65s-.09,0-.14,0c-.55-.08-.93-.58-.85-1.13l2.25-15.82c.08-.55.58-.93,1.13-.85.55.08.93.58.85,1.13l-2.25,15.82c-.07.5-.5.86-.99.86Z"/>
      <path class="cls-1" d="M103.62,149.07c-1.13,0-2.27-.32-3.28-.98-2.74-1.81-3.5-5.52-1.69-8.26,1.81-2.74,5.52-3.5,8.26-1.69,1.33.88,2.24,2.22,2.56,3.78.32,1.56.01,3.15-.87,4.48h0c-1.15,1.74-3.05,2.68-4.99,2.68ZM103.63,139.15c-1.29,0-2.55.63-3.31,1.78-1.2,1.82-.7,4.29,1.12,5.49.88.58,1.94.79,2.98.58,1.04-.21,1.93-.82,2.51-1.7h0c.58-.88.79-1.94.58-2.98-.21-1.04-.82-1.93-1.7-2.51-.67-.44-1.43-.65-2.18-.65Z"/>
      <path class="cls-1" d="M122.65,150.52c-.11,0-.22-.02-.33-.06l-14.08-4.88c-.52-.18-.8-.75-.62-1.27.18-.52.75-.8,1.27-.62l14.08,4.88c.52.18.8.75.62,1.27-.14.41-.53.67-.94.67Z"/>
      <path class="cls-1" d="M127.88,156.94c-1.16,0-2.29-.34-3.27-.99-2.74-1.81-3.5-5.52-1.69-8.26.88-1.33,2.22-2.24,3.78-2.56,1.56-.32,3.15-.01,4.48.87,2.74,1.81,3.5,5.52,1.69,8.26h0c-.88,1.33-2.22,2.24-3.78,2.56-.4.08-.81.12-1.21.12ZM127.9,147.01c-.27,0-.54.03-.8.08-1.04.21-1.93.82-2.51,1.7-1.2,1.82-.7,4.29,1.12,5.49.88.58,1.94.79,2.98.58s1.93-.82,2.51-1.7h0c.58-.88.79-1.94.58-2.98-.21-1.04-.82-1.93-1.7-2.51-.66-.43-1.41-.66-2.18-.66ZM132.04,153.71h0,0Z"/>
    </g>
    <path class="cls-1" d="M309.6,72.09c-1.04,0-2.09-.15-3.14-.45-2.03-.6-3.81-1.73-5.2-3.31-2.63,1.52-5.75,1.9-8.7,1.04-2.57-.76-4.74-2.37-6.18-4.6-2.42,1.09-5.11,1.27-7.69.52-2.84-.84-5.22-2.76-6.63-5.34-1.91.48-3.91.44-5.82-.12-5.89-1.73-9.27-7.93-7.54-13.83,1.21-4.12,4.63-7.13,8.83-7.84.01-.04.02-.08.03-.12,1.73-5.89,7.93-9.28,13.82-7.54,1.52.45,2.92,1.21,4.11,2.24,2.76-3.69,7.53-5.33,12.04-4.01,4.06,1.19,7.05,4.52,7.81,8.69.07.36.12.72.14,1.09,1.48-.17,2.98-.04,4.41.38,2.85.84,5.21,2.74,6.63,5.35,1.42,2.61,1.75,5.62.91,8.47-.03.1-.06.19-.09.28,2.94,2.86,4.09,7.15,2.92,11.12-1.42,4.85-5.88,8-10.69,8ZM301.71,65.63l.58.78c1.19,1.61,2.83,2.75,4.74,3.31,4.83,1.42,9.92-1.35,11.34-6.19,1.01-3.43-.1-7.17-2.82-9.51l-.54-.46.26-.66c.1-.25.19-.51.27-.77.69-2.34.42-4.81-.75-6.95-1.17-2.14-3.1-3.7-5.44-4.39-1.49-.44-3.08-.49-4.59-.14l-1.25.29.03-1.29c.02-.64-.03-1.28-.14-1.88-.62-3.42-3.08-6.15-6.41-7.13-4.03-1.19-8.32.52-10.45,4.15l-.68,1.16-.92-.99c-1.12-1.21-2.54-2.09-4.11-2.55-4.83-1.42-9.92,1.36-11.34,6.19-.06.22-.11.44-.16.66l-.15.71-.72.08c-3.71.38-6.78,2.94-7.83,6.51-1.42,4.83,1.35,9.92,6.19,11.34,1.8.53,3.69.49,5.46-.1l.86-.29.37.83c1.1,2.44,3.2,4.28,5.76,5.03,2.37.7,4.87.42,7.02-.78l.89-.5.48.9c1.17,2.18,3.11,3.77,5.48,4.46,2.66.78,5.5.32,7.78-1.26l.79-.55Z"/>
    <path class="cls-1" d="M397.52,326.02c-1.08,0-2.6-.42-4.64-1.27-2.98-1.24-6.69-3.26-10.43-5.69-2.45-1.59-14.59-9.68-12.51-12.88l.55-.85h.02s18.94-29.23,18.94-29.23l.03-.11.2-.21c2.24-2.99,14.36,4.63,16.79,6.21,1.38.89,13.18,8.65,12.75,12.24,0,.25-.11.49-.25.67l-3.62,5.58c4.44,2.91,5.54,9.14,2.45,13.91l-.34.52c-1.49,2.3-3.73,3.92-6.32,4.58-2.6.66-5.21.25-7.38-1.13l-4.45,6.86c-.35.54-.93.81-1.8.81ZM371.7,307.19c.28,1.09,3.93,5.08,11.84,10.2,7.99,5.18,13.14,6.86,14.18,6.63l5.46-8.43,1.63,1.06c1.7,1.1,3.78,1.42,5.84.9,2.1-.53,3.92-1.85,5.13-3.73l.34-.52c2.5-3.86,1.65-8.87-1.91-11.17l-1.63-1.06,3.74-5.77c-4.59-.8-12.93-6.13-14.04-6.85-1.11-.72-9.35-6.13-11.97-9.99l-18.61,28.73ZM391.74,277.05c.91,1.51,4.58,5.17,11.62,9.73,7.12,4.61,11.99,6.45,13.7,6.63-.85-1.42-4.53-5.12-11.68-9.75-7.08-4.58-11.92-6.42-13.64-6.61ZM408.65,314.49c-.96,0-1.88-.27-2.69-.79l-1.1-.71,5.99-9.25,1.1.71c1.17.76,1.95,1.96,2.2,3.39.25,1.4-.06,2.84-.85,4.06-.79,1.22-1.98,2.08-3.36,2.43-.44.11-.87.16-1.3.16ZM407.68,312.32c.56.19,1.17.21,1.79.06.88-.22,1.65-.78,2.17-1.58.51-.79.71-1.73.55-2.62-.11-.62-.38-1.18-.78-1.6l-3.72,5.75Z"/>
    <path class="cls-1" d="M428.42,256.28c-1.12,0-2.06-1.08-2.06-2.35,0-2.17-1.38-3.93-3.08-3.93-1.12,0-2.06-1.08-2.06-2.35s.94-2.35,2.06-2.35c1.7,0,3.08-1.76,3.08-3.93,0-1.27.94-2.35,2.06-2.35s2.06,1.08,2.06,2.35c0,2.17,1.38,3.93,3.08,3.93,1.12,0,2.06,1.08,2.06,2.35s-.94,2.35-2.06,2.35c-1.7,0-3.08,1.76-3.08,3.93,0,1.27-.94,2.35-2.06,2.35ZM428.42,240.51c-.25,0-.56.38-.56.85,0,2.99-2.05,5.43-4.58,5.43-.25,0-.56.38-.56.85s.31.85.56.85c2.53,0,4.58,2.44,4.58,5.43,0,.47.31.85.56.85s.56-.38.56-.85c0-2.99,2.05-5.43,4.58-5.43.25,0,.56-.38.56-.85s-.31-.85-.56-.85c-2.53,0-4.58-2.44-4.58-5.43,0-.47-.31-.85-.56-.85Z"/>
    <path class="cls-1" d="M19.6,384.53c-.85,0-1.54-.77-1.54-1.71,0-1.14-.7-2.07-1.55-2.07s-1.54-.77-1.54-1.71.69-1.71,1.54-1.71,1.55-.93,1.55-2.06c0-.95.69-1.71,1.54-1.71s1.54.77,1.54,1.71c0,1.14.7,2.06,1.55,2.06s1.54.77,1.54,1.71-.69,1.71-1.54,1.71-1.55.93-1.55,2.07c0,.94-.69,1.71-1.54,1.71ZM16.57,379.26c1.63,0,2.99,1.6,2.99,3.56,0,.08.03.14.05.18,0-.04.03-.1.03-.18,0-1.97,1.37-3.57,3.05-3.57-.03,0,.04-.08.04-.21,0-.11-.05-.19-.08-.21-1.67-.02-3.02-1.61-3.02-3.56,0-.08-.03-.14-.05-.18,0,.04-.03.1-.03.18,0,1.97-1.37,3.56-3.05,3.56.03,0-.04.09-.04.21s.07.21.09.22h.02ZM22.69,378.82h0,0Z"/>
    <path class="cls-1" d="M63.48,184.54c-.77,0-1.39-.69-1.39-1.54s-.52-1.55-1.13-1.55c-.77,0-1.39-.69-1.39-1.54s.62-1.54,1.39-1.54c.61,0,1.13-.71,1.13-1.55s.62-1.54,1.39-1.54,1.39.69,1.39,1.54.52,1.55,1.13,1.55c.77,0,1.39.69,1.39,1.54s-.62,1.54-1.39,1.54c-.61,0-1.13.71-1.13,1.55s-.62,1.54-1.39,1.54ZM61.09,179.96c1.14.06,2.08.96,2.39,2.18.33-1.23,1.27-2.12,2.4-2.18v-.08c-1.14-.06-2.08-.96-2.39-2.18-.33,1.23-1.27,2.12-2.4,2.18v.08ZM66,179.89h0,0Z"/>
    <path class="cls-1" d="M131.94,107.43c-1.01,0-1.86-.97-1.86-2.11,0-1.78-1.12-3.23-2.51-3.23-1.01,0-1.86-.97-1.86-2.11s.85-2.11,1.86-2.11c1.38,0,2.51-1.45,2.51-3.23,0-1.14.85-2.11,1.86-2.11s1.87.97,1.87,2.11c0,1.78,1.12,3.23,2.51,3.23,1.01,0,1.86.97,1.86,2.11s-.85,2.11-1.86,2.11c-1.38,0-2.51,1.45-2.51,3.23,0,1.14-.85,2.11-1.87,2.11ZM131.94,94.03c-.12,0-.36.24-.36.61,0,2.61-1.8,4.73-4.01,4.73-.12,0-.36.24-.36.61s.24.61.36.61c2.21,0,4.01,2.12,4.01,4.73,0,.37.24.61.36.61s.37-.24.37-.61c0-2.61,1.8-4.73,4.01-4.73.12,0,.36-.24.36-.61s-.24-.61-.36-.61c-2.21,0-4.01-2.12-4.01-4.73,0-.37-.24-.61-.37-.61Z"/>
    <path class="cls-1" d="M315.8,108.79c-.72,0-1.31-.7-1.31-1.57,0-.94-.46-1.64-.88-1.64-.72,0-1.31-.7-1.31-1.57s.59-1.57,1.31-1.57c.42,0,.88-.7.88-1.64,0-.86.59-1.57,1.31-1.57s1.31.7,1.31,1.57c0,.94.46,1.64.88,1.64.72,0,1.31.7,1.31,1.57s-.59,1.57-1.31,1.57c-.42,0-.88.7-.88,1.64,0,.86-.59,1.57-1.31,1.57ZM313.82,104.09c.9.1,1.65.83,1.98,1.87.34-1.04,1.08-1.78,1.99-1.87,0-.02,0-.05,0-.08s0-.06,0-.08c-.9-.1-1.65-.83-1.99-1.87-.34,1.04-1.08,1.78-1.98,1.87,0,.02,0,.05,0,.08s0,.06,0,.08ZM317.99,103.94h0,0Z"/>
    <path class="cls-1" d="M387.52,248.4c-.74,0-1.34-.73-1.34-1.62,0-1.02-.52-1.79-.98-1.79-.74,0-1.34-.73-1.34-1.62s.6-1.62,1.34-1.62c.46,0,.98-.76.98-1.79,0-.89.6-1.62,1.34-1.62s1.34.73,1.34,1.62c0,1.02.52,1.79.98,1.79.74,0,1.34.73,1.34,1.62s-.6,1.62-1.34,1.62c-.46,0-.98.77-.98,1.79,0,.89-.6,1.62-1.34,1.62ZM385.38,243.49c1,.09,1.81.93,2.14,2.1.33-1.18,1.15-2.01,2.14-2.1,0-.03.02-.08.02-.13s0-.09-.02-.13c-1-.09-1.81-.93-2.14-2.1-.33,1.18-1.15,2.01-2.14,2.1,0,.03-.02.08-.02.13s0,.09.02.13ZM389.84,243.25h0,0Z"/>
    <path class="cls-1" d="M333.38,131.22c-.94,0-1.7-.96-1.7-2.14,0-1.8-.93-3.32-2.02-3.32-.94,0-1.7-.96-1.7-2.14s.76-2.14,1.7-2.14c1.1,0,2.02-1.52,2.02-3.32,0-1.18.76-2.14,1.7-2.14s1.7.96,1.7,2.14c0,1.8.93,3.32,2.02,3.32.94,0,1.7.96,1.7,2.14s-.76,2.14-1.7,2.14c-1.1,0-2.02,1.52-2.02,3.32,0,1.18-.76,2.14-1.7,2.14ZM329.71,124.27c1.93,0,3.47,2.11,3.47,4.81,0,.37.17.62.24.65-.02-.03.16-.28.16-.65,0-2.7,1.55-4.82,3.52-4.82.02-.03.2-.27.2-.64,0-.35-.15-.59-.23-.64-1.96-.02-3.49-2.13-3.49-4.82,0-.37-.17-.62-.24-.65.02.03-.16.28-.16.65,0,2.7-1.55,4.82-3.52,4.82-.03.03-.2.27-.2.64s.17.62.24.65h0ZM337.1,122.97h0,0Z"/>
    <path class="cls-1" d="M53.87,91.35c-.94,0-1.7-.96-1.7-2.14,0-1.8-.93-3.32-2.02-3.32-.94,0-1.7-.96-1.7-2.14s.76-2.14,1.7-2.14c1.1,0,2.02-1.52,2.02-3.32,0-1.18.76-2.14,1.7-2.14s1.7.96,1.7,2.14c0,1.8.93,3.32,2.02,3.32.94,0,1.7.96,1.7,2.14s-.76,2.14-1.7,2.14c-1.1,0-2.02,1.52-2.02,3.32,0,1.18-.76,2.14-1.7,2.14ZM50.2,84.39c1.93,0,3.47,2.11,3.47,4.81,0,.37.17.62.24.65-.02-.03.15-.28.15-.65,0-2.7,1.55-4.82,3.52-4.82.02-.03.2-.27.2-.64,0-.35-.15-.59-.23-.64-1.96-.02-3.49-2.13-3.49-4.82,0-.37-.17-.62-.24-.65.02.03-.15.28-.15.65,0,2.7-1.55,4.82-3.52,4.82-.03.03-.2.27-.2.64s.17.62.24.65h.01ZM57.59,83.1h0,0Z"/>
    <path class="cls-1" d="M45.41,379.79c-.94,0-1.7-.96-1.7-2.14,0-1.8-.93-3.32-2.02-3.32-.94,0-1.7-.96-1.7-2.14s.76-2.14,1.7-2.14c1.1,0,2.02-1.52,2.02-3.32,0-1.18.76-2.14,1.7-2.14s1.7.96,1.7,2.14c0,1.8.93,3.32,2.02,3.32.94,0,1.7.96,1.7,2.14s-.76,2.14-1.7,2.14c-1.1,0-2.02,1.52-2.02,3.32,0,1.18-.76,2.14-1.7,2.14ZM41.74,372.83c1.93,0,3.47,2.11,3.47,4.81,0,.37.17.62.24.65-.02-.03.15-.28.15-.65,0-2.7,1.55-4.82,3.52-4.82.03-.03.2-.27.2-.64,0-.35-.15-.59-.23-.64-1.96-.02-3.49-2.13-3.49-4.82,0-.37-.17-.62-.24-.65.02.03-.15.28-.15.65,0,2.7-1.55,4.82-3.52,4.82-.03.03-.2.27-.2.64s.17.62.24.65h.01ZM49.13,371.54h0,0Z"/>
    <path class="cls-1" d="M3.66,289.17c-.74,0-1.34-.73-1.34-1.62,0-1.02-.52-1.79-.98-1.79-.74,0-1.34-.73-1.34-1.62s.6-1.62,1.34-1.62c.46,0,.98-.76.98-1.79,0-.89.6-1.62,1.34-1.62s1.34.73,1.34,1.62c0,1.02.52,1.79.98,1.79.74,0,1.34.73,1.34,1.62s-.6,1.62-1.34,1.62c-.46,0-.98.77-.98,1.79,0,.89-.6,1.62-1.34,1.62ZM1.52,284.27c1,.09,1.81.93,2.14,2.1.33-1.18,1.15-2.01,2.14-2.1.01-.03.02-.08.02-.13s0-.09-.02-.13c-1-.09-1.81-.93-2.14-2.1-.33,1.18-1.15,2.01-2.14,2.1,0,.03-.02.08-.02.13s0,.09.02.13ZM5.98,284.03h0,0Z"/>
    <path class="cls-1" d="M60.57,393.95c-.74,0-1.34-.73-1.34-1.62,0-1.02-.52-1.79-.98-1.79-.74,0-1.34-.73-1.34-1.62s.6-1.62,1.34-1.62c.46,0,.98-.76.98-1.79,0-.89.6-1.62,1.34-1.62s1.34.73,1.34,1.62c0,1.02.52,1.79.98,1.79.74,0,1.34.73,1.34,1.62s-.6,1.62-1.34,1.62c-.46,0-.98.77-.98,1.79,0,.89-.6,1.62-1.34,1.62ZM58.43,389.05c1,.09,1.81.93,2.14,2.1.33-1.18,1.15-2.01,2.14-2.1.01-.03.02-.08.02-.13s0-.09-.02-.13c-1-.09-1.81-.93-2.14-2.1-.33,1.18-1.15,2.01-2.14,2.1-.01.03-.02.08-.02.13s0,.09.02.13ZM62.89,388.8h0,0Z"/>
    <path class="cls-1" d="M82.39,171.89c-.88,0-1.59-.89-1.59-1.99,0-1.56-.78-2.87-1.71-2.87-.88,0-1.59-.89-1.59-1.99s.71-1.99,1.59-1.99c.93,0,1.71-1.31,1.71-2.87,0-1.1.71-1.99,1.59-1.99s1.59.89,1.59,1.99c0,1.56.78,2.87,1.71,2.87.88,0,1.59.89,1.59,1.99s-.71,1.99-1.59,1.99c-.93,0-1.71,1.31-1.71,2.87,0,1.1-.71,1.99-1.59,1.99ZM79.18,165.55c1.71,0,3.11,1.91,3.11,4.35,0,.18.05.31.09.4.05-.09.09-.22.09-.4,0-2.45,1.41-4.37,3.21-4.37-.04-.01.09-.19.09-.49,0-.26-.1-.43-.15-.49-1.77-.04-3.15-1.95-3.15-4.37,0-.18-.05-.31-.09-.4-.05.09-.09.22-.09.4,0,2.45-1.41,4.37-3.21,4.37.04.01-.09.19-.09.49s.13.48.17.51c0,0,.02,0,.02,0ZM85.69,164.55h0,0Z"/>
    <path class="cls-1" d="M432.39,363.86c-.88,0-1.59-.89-1.59-1.99,0-1.56-.79-2.87-1.71-2.87-.88,0-1.59-.89-1.59-1.99s.71-1.99,1.59-1.99c.93,0,1.71-1.31,1.71-2.87,0-1.1.71-1.99,1.59-1.99s1.59.89,1.59,1.99c0,1.56.79,2.87,1.71,2.87.88,0,1.59.89,1.59,1.99s-.71,1.99-1.59,1.99c-.93,0-1.71,1.31-1.71,2.87,0,1.1-.71,1.99-1.59,1.99ZM429.19,357.52c1.71,0,3.11,1.91,3.11,4.35,0,.18.05.31.09.4.05-.09.09-.22.09-.4,0-2.45,1.41-4.37,3.21-4.37-.04-.01.09-.19.09-.49,0-.26-.1-.43-.15-.49-1.77-.04-3.15-1.95-3.15-4.37,0-.18-.05-.31-.09-.4-.05.09-.09.22-.09.4,0,2.45-1.41,4.37-3.21,4.37.04.01-.09.19-.09.49s.13.48.17.51h.02ZM435.7,356.52h0,0Z"/>
    <path class="cls-1" d="M313.94,19.74c-.88,0-1.59-.89-1.59-1.99,0-1.56-.79-2.87-1.71-2.87-.88,0-1.59-.89-1.59-1.99s.71-1.99,1.59-1.99c.93,0,1.71-1.31,1.71-2.87,0-1.1.71-1.99,1.59-1.99s1.59.89,1.59,1.99c0,1.56.79,2.87,1.71,2.87.88,0,1.59.89,1.59,1.99s-.71,1.99-1.59,1.99c-.93,0-1.71,1.31-1.71,2.87,0,1.1-.71,1.99-1.59,1.99ZM310.74,13.4c1.71,0,3.11,1.91,3.11,4.35,0,.18.05.31.09.4.05-.09.09-.22.09-.4,0-2.45,1.41-4.37,3.21-4.37-.04-.01.09-.19.09-.49,0-.26-.1-.43-.15-.49-1.77-.04-3.15-1.95-3.15-4.37,0-.18-.05-.31-.09-.4-.05.09-.09.22-.09.4,0,2.45-1.41,4.37-3.21,4.37.04.01-.09.19-.09.49s.13.48.17.51h.02ZM317.25,12.4h0,0Z"/>
    <path class="cls-1" d="M406.22,124.65c-.74,0-1.34-.73-1.34-1.62,0-1.02-.52-1.79-.98-1.79-.74,0-1.34-.73-1.34-1.62s.6-1.62,1.34-1.62c.46,0,.98-.77.98-1.79,0-.89.6-1.62,1.34-1.62s1.34.73,1.34,1.62c0,1.02.52,1.79.98,1.79.74,0,1.34.73,1.34,1.62s-.6,1.62-1.34,1.62c-.46,0-.98.77-.98,1.79,0,.89-.6,1.62-1.34,1.62ZM404.08,119.75c1,.09,1.81.93,2.14,2.1.33-1.18,1.15-2.01,2.14-2.1,0-.03.02-.08.02-.13s0-.09-.02-.13c-1-.09-1.81-.93-2.14-2.1-.33,1.18-1.15,2.01-2.14,2.1,0,.03-.02.07-.02.13s0,.1.02.13ZM408.54,119.5h0,0Z"/>
    <path class="cls-1" d="M418.09,221.43c-.85,0-1.54-.77-1.54-1.71,0-1.14-.7-2.07-1.55-2.07s-1.54-.77-1.54-1.71.69-1.71,1.54-1.71,1.55-.93,1.55-2.07c0-.94.69-1.71,1.54-1.71s1.54.77,1.54,1.71c0,1.14.7,2.07,1.55,2.07s1.54.77,1.54,1.71-.69,1.71-1.54,1.71-1.55.93-1.55,2.07c0,.94-.69,1.71-1.54,1.71ZM415.06,216.16c1.63,0,2.99,1.59,2.99,3.55,0,.08.03.14.05.18,0-.04.03-.1.03-.18,0-1.97,1.37-3.57,3.05-3.57-.03,0,.04-.09.04-.21,0-.11-.05-.18-.08-.21-1.67-.02-3.02-1.61-3.02-3.57,0-.08-.03-.14-.05-.18,0,.04-.03.1-.03.18,0,1.97-1.37,3.57-3.05,3.57.03,0-.04.08-.04.21s.07.21.09.22h.02ZM421.18,215.73h0,0Z"/>
    <path class="cls-1" d="M159.65,10.05c-.74,0-1.34-.73-1.34-1.62,0-1.02-.52-1.79-.98-1.79-.74,0-1.34-.73-1.34-1.62s.6-1.62,1.34-1.62c.46,0,.98-.77.98-1.79,0-.89.6-1.62,1.34-1.62s1.34.73,1.34,1.62c0,1.02.52,1.79.98,1.79.74,0,1.34.73,1.34,1.62s-.6,1.62-1.34,1.62c-.46,0-.98.77-.98,1.79,0,.89-.6,1.62-1.34,1.62ZM157.5,5.15c1,.09,1.81.93,2.14,2.1.33-1.18,1.15-2.01,2.14-2.1.01-.03.02-.07.02-.13s0-.1-.02-.13c-1-.09-1.81-.93-2.14-2.1-.33,1.18-1.15,2.01-2.14,2.1-.01.03-.02.07-.02.13s0,.1.02.13ZM161.97,4.91h0,0Z"/>
    <path class="cls-1" d="M344,50.5c-.64,0-1.15-.6-1.15-1.34,0-.61-.3-.98-.43-.98-.64,0-1.15-.6-1.15-1.34s.52-1.34,1.15-1.34c.13,0,.43-.37.43-.98,0-.74.52-1.34,1.15-1.34s1.15.6,1.15,1.34c0,.61.3.98.43.98.64,0,1.15.6,1.15,1.34s-.52,1.34-1.15,1.34c-.13,0-.43.37-.43.98,0,.74-.52,1.34-1.15,1.34ZM343.11,46.84c.36.17.67.49.89.89.22-.4.53-.71.89-.89-.36-.17-.67-.49-.89-.89-.22.4-.53.71-.89.89ZM345.58,47h0,0Z"/>
    <path class="cls-1" d="M417.74,380.48c-.81,0-1.47-.81-1.47-1.8,0-1.37-.71-2.33-1.35-2.33-.81,0-1.47-.81-1.47-1.8s.66-1.8,1.47-1.8c.64,0,1.35-.96,1.35-2.33,0-.99.66-1.8,1.47-1.8s1.47.81,1.47,1.8c0,1.37.71,2.33,1.35,2.33.81,0,1.47.81,1.47,1.8s-.66,1.8-1.47,1.8c-.64,0-1.35.96-1.35,2.33,0,.99-.66,1.8-1.47,1.8ZM415.03,374.85c1.4.07,2.5,1.42,2.71,3.24.2-1.81,1.31-3.17,2.71-3.24.03-.05.08-.16.08-.31s-.04-.25-.08-.31c-1.4-.07-2.5-1.43-2.71-3.24-.2,1.81-1.31,3.17-2.71,3.24-.03.05-.08.16-.08.31s.04.25.08.31ZM420.55,374.24h0,0Z"/>
  </g>
  <g id="Layer_1" data-name="Layer 1">
    <g id="_131_design_designer_graphic_idea_mouse" data-name="131, design, designer, graphic, idea, mouse">
      <g>
        <path class="cls-1" d="M392.96,162.72l.12-1.4c.52-6.2-4.05-11.59-10.25-12.11-6.2-.52-11.59,4.05-12.11,10.25l-2.25,26.99c-.2,2.44-2.28,4.21-4.73,4s-4.21-2.29-4-4.73l1.11-13.27c1.35-.33,2.32-1.48,2.44-2.87l.64-7.68c.05-.61-.43-1.18-1.04-1.23l-4.37-.36c-.61-.05-1.18.43-1.23,1.04l-.64,7.68c-.12,1.4.66,2.69,1.93,3.24l-1.11,13.27c-.3,3.58,2.42,6.8,6,7.09s6.8-2.42,7.09-6l2.25-26.99c.41-4.98,4.77-8.66,9.74-8.25,4.98.41,8.66,4.77,8.25,9.74l-.12,1.4c-7.03-.06-13.11,5.42-13.71,12.58l-.77,9.26c-.63,7.51,4.98,14.13,12.49,14.76,7.68.64,14.31-4.96,14.93-12.47l.77-9.26c.6-7.16-4.41-13.56-11.44-14.67ZM359.87,170.34c-.61-.05-1.09-.62-1.04-1.23l.28-3.32,2.27.19-.28,3.32c-.06.7-.62,1.09-1.23,1.04ZM361.64,162.84l-.09,1.14-2.18-.18.09-1.14,2.18.18ZM390.59,164.72l-.95,11.44-10.39-.87c.49-5.94,5.54-10.53,11.34-10.58ZM389.05,196.95c-6.29-.52-11.01-6.11-10.49-12.39l.59-7.07,10.39.87-.28,3.32c-.05.61.43,1.18,1.04,1.23s1.18-.43,1.23-1.04l.28-3.32,6.03.5-.55,6.55c-.05.61.43,1.18,1.04,1.23s1.18-.43,1.23-1.04l.55-6.55,2.18.18-.59,7.07c-.79,6.27-6.37,10.99-12.65,10.47ZM391.82,176.34l.95-11.44c5.81,1.01,9.93,6.37,9.44,12.31l-10.39-.87Z"/>
        <path class="cls-1" d="M401.4,160.61c1.83.15,3.44-1.21,3.59-2.96.15-1.75-1.21-3.44-3.04-3.6s-3.44,1.21-3.59,3.04,1.22,3.35,3.05,3.51ZM401.76,156.24c.61.05,1.09.62,1.04,1.23s-.62,1.09-1.23,1.04-1.09-.62-1.04-1.23c.14-.6.62-1.09,1.23-1.04Z"/>
        <path class="cls-1" d="M373.52,191.26c-1.83-.15-3.44,1.21-3.6,3.04s1.21,3.44,3.04,3.6,3.44-1.21,3.59-3.04-1.21-3.44-3.04-3.59ZM373.16,195.63c-.61-.05-1.09-.62-1.04-1.23s.62-1.09,1.23-1.04,1.09.62,1.04,1.23-.62,1.09-1.23,1.04Z"/>
        <path class="cls-1" d="M360.35,158.33c2.1.17,3.99-1.43,4.16-3.52s-1.43-3.99-3.52-4.16c-2.1-.17-3.99,1.43-4.16,3.52s1.43,3.99,3.52,4.16ZM360.8,152.83c.87.07,1.6.84,1.52,1.8-.07.87-.84,1.6-1.8,1.52s-1.6-.84-1.52-1.8c.07-.87.92-1.59,1.8-1.52Z"/>
        <path class="cls-1" d="M355.79,193.04c.63.05,1.09.6,1.04,1.23s-.6,1.09-1.23,1.04-1.09-.6-1.04-1.23.6-1.09,1.23-1.04Z"/>
        <path class="cls-1" d="M379.48,159.84c.63.05,1.09.6,1.04,1.23s-.6,1.09-1.23,1.04-1.09-.6-1.04-1.23.6-1.09,1.23-1.04Z"/>
        <path class="cls-1" d="M369.38,149.15c.63.05,1.09.6,1.04,1.23s-.6,1.09-1.23,1.04-1.09-.6-1.04-1.23.6-1.09,1.23-1.04Z"/>
        <path class="cls-1" d="M395.58,151.33c.63.05,1.09.6,1.04,1.23s-.6,1.09-1.23,1.04-1.09-.6-1.04-1.23.6-1.09,1.23-1.04Z"/>
        <path class="cls-1" d="M405.68,162.02c.63.05,1.09.6,1.04,1.23s-.6,1.09-1.23,1.04-1.09-.6-1.04-1.23.6-1.09,1.23-1.04Z"/>
        <path class="cls-1" d="M400.59,196.77c.63.05,1.09.6,1.04,1.23s-.6,1.09-1.23,1.04-1.09-.6-1.04-1.23.6-1.09,1.23-1.04Z"/>
      </g>
    </g>
  </g>
</svg>