<?xml version="1.0" encoding="UTF-8"?>
<svg id="Camada_1" data-name="Camada 1" xmlns="http://www.w3.org/2000/svg" viewBox="0 0 500 500">
  <defs>
    <style>
      .cls-1 {
        fill: #47deec;
      }
    </style>
  </defs>
  <polygon class="cls-1" points="280.01 297.34 250.22 317.6 281.89 364.16 280.01 297.34"/>
  <polygon class="cls-1" points="114.52 288.62 115.53 306.61 219.26 459.1 239.44 445.38 131.89 288.63 114.52 288.62"/>
  <polygon class="cls-1" points="279.08 264.35 275.98 154.06 174.12 73.71 7.68 170.4 11.28 298.65 36.44 335.64 32.19 184.04 172.06 102.79 252.2 166.01 254.61 251.78 204.13 285.88 167.43 287.97 263.15 429.09 283.1 415.55 211.25 309.62 212.13 309.57 279.08 264.35"/>
  <polygon class="cls-1" points="171.29 136.43 60.11 200.88 65.07 377.73 90.23 414.71 84.61 214.54 168.74 165.78 201.96 193.67 202.84 225 186.91 235.03 113.01 237.11 113.68 261.21 194.18 258.95 227.33 238.07 225.76 182.17 171.29 136.43"/>
  <polygon class="cls-1" points="429.51 278.95 307.42 282.38 310.64 397.21 334.31 381.06 332.14 303.76 421.22 301.26 429.51 278.95"/>
  <polygon class="cls-1" points="492.32 109.97 275.12 116.07 303.34 139.4 483.26 134.35 492.32 109.97"/>
  <polygon class="cls-1" points="449.17 226.08 330.05 229.42 328.92 188.99 464.36 185.19 473.42 160.82 304.14 165.57 306.63 254.2 440.11 250.45 449.17 226.08"/>
</svg>